<svg xmlns="http://www.w3.org/2000/svg" xmlns:xlink="http://www.w3.org/1999/xlink" width="500" zoomAndPan="magnify" viewBox="0 0 375 374.999991" height="500" preserveAspectRatio="xMidYMid meet" version="1.0"><defs><g/></defs><g fill="#789461" fill-opacity="1"><g transform="translate(84.807531, 205.753962)"><g><path d="M 25.851562 0 L 41.152344 0 L 30.0625 -21.761719 L 40.023438 -41.507812 L 25.320312 -41.507812 L 18.972656 -26.089844 L 16.898438 -26.089844 L 16.898438 -41.507812 L 3.144531 -41.507812 L 3.144531 0 L 16.898438 0 L 16.898438 -15.773438 L 19.035156 -15.773438 Z M 25.851562 0 "/></g></g></g><g fill="#789461" fill-opacity="1"><g transform="translate(125.477188, 205.753962)"><g><path d="M 25.023438 -41.507812 L 25.023438 -26.503906 L 16.898438 -26.503906 L 16.898438 -41.507812 L 3.144531 -41.507812 L 3.144531 0 L 16.898438 0 L 16.898438 -15.355469 L 25.023438 -15.355469 L 25.023438 0 L 38.777344 0 L 38.777344 -41.507812 Z M 25.023438 -41.507812 "/></g></g></g><g fill="#789461" fill-opacity="1"><g transform="translate(167.391835, 205.753962)"><g><path d="M 28.34375 0 L 42.691406 0 L 27.929688 -41.507812 L 14.113281 -41.507812 L -0.59375 0 L 13.578125 0 L 15.355469 -6.820312 L 26.503906 -6.820312 Z M 17.90625 -16.304688 L 20.871094 -27.691406 L 23.957031 -16.304688 Z M 17.90625 -16.304688 "/></g></g></g><g fill="#789461" fill-opacity="1"><g transform="translate(209.484346, 205.753962)"><g><path d="M 3.144531 0 L 23.539062 0 C 33.621094 0 38.363281 -4.210938 38.304688 -11.859375 C 38.246094 -16.425781 36.882812 -19.980469 33.085938 -21.644531 C 35.8125 -23.480469 37.179688 -26.503906 37.179688 -30.417969 C 37.179688 -37.890625 32.492188 -41.507812 22.886719 -41.507812 L 3.144531 -41.507812 Z M 16.660156 -25.554688 L 16.660156 -31.960938 L 20.992188 -31.960938 C 22.886719 -31.960938 24.015625 -31.011719 24.015625 -28.816406 C 24.015625 -26.5625 22.886719 -25.554688 20.992188 -25.554688 Z M 16.660156 -9.546875 L 16.660156 -16.304688 L 21.109375 -16.304688 C 23.363281 -16.304688 24.609375 -15.238281 24.609375 -12.925781 C 24.609375 -10.554688 23.363281 -9.546875 21.109375 -9.546875 Z M 16.660156 -9.546875 "/></g></g></g><g fill="#789461" fill-opacity="1"><g transform="translate(249.383299, 205.753962)"><g><path d="M 20.398438 1.007812 C 32.910156 1.007812 39.074219 -5.097656 39.074219 -20.753906 C 39.074219 -36.40625 32.910156 -42.515625 20.398438 -42.515625 C 7.886719 -42.515625 1.71875 -36.40625 1.71875 -20.753906 C 1.71875 -5.097656 7.886719 1.007812 20.398438 1.007812 Z M 20.398438 -10.496094 C 17.375 -10.496094 15.832031 -12.570312 15.832031 -20.753906 C 15.832031 -28.996094 17.375 -31.011719 20.398438 -31.011719 C 23.421875 -31.011719 24.964844 -28.996094 24.964844 -20.753906 C 24.964844 -12.570312 23.421875 -10.496094 20.398438 -10.496094 Z M 20.398438 -10.496094 "/></g></g></g></svg>